<svg id="Layer_1" data-name="Layer 1" xmlns="http://www.w3.org/2000/svg" viewBox="0 0 511 59.86"><defs><style>.cls-1{fill:#fff;}</style></defs><title>tcc-logo-white</title><path class="cls-1" d="M16,46.57a21.6,21.6,0,0,0,4.79-.47v2.34a15.26,15.26,0,0,1-4.86.7q-4.2,0-6.21-2.25t-2-7.08V19.3H3V17.6l4.7-1.32L9.17,9.1h1.49v7.68H20V19.3H10.66V39.4a9.21,9.21,0,0,0,1.28,5.41,4.67,4.67,0,0,0,4,1.76" transform="translate(-3 -3.07)"/><path class="cls-1" d="M48,48.56V27.94c0-3.19-.67-5.52-2-7s-3.43-2.19-6.26-2.19q-5.7,0-8.34,2.88T28.74,31V48.56H25.85V3.07h2.89V17.54l-0.15,4.06H28.8a10.64,10.64,0,0,1,4.5-4.15,15.77,15.77,0,0,1,6.75-1.29q10.82,0,10.81,11.6V48.56H48Z" transform="translate(-3 -3.07)"/><path class="cls-1" d="M72.2,49.14q-6.93,0-10.81-4.27t-3.87-12q0-7.59,3.75-12.17a12.33,12.33,0,0,1,10.08-4.58,10.93,10.93,0,0,1,8.87,3.91Q83.45,24,83.45,30.72v2.34H60.56q0.05,6.55,3.05,10t8.58,3.44A26.57,26.57,0,0,0,77,46.13a29.48,29.48,0,0,0,5.21-1.64v2.63a23,23,0,0,1-5,1.6,27.63,27.63,0,0,1-5,.42m-0.85-30.4a9.52,9.52,0,0,0-7.36,3q-2.78,3-3.25,8.73H80.38q0-5.52-2.4-8.63a7.91,7.91,0,0,0-6.64-3.12" transform="translate(-3 -3.07)"/><path class="cls-1" d="M103,49.14q-15.27,0-15.26-16.75,0-8.33,4.16-12.73t11.9-4.4A22.66,22.66,0,0,1,114,17.48l-2.63,6.89c-1.4-.56-2.71-1-3.92-1.38a12.5,12.5,0,0,0-3.62-.54q-7,0-7,9.88,0,9.59,7,9.6a16,16,0,0,0,4.76-.69A17.36,17.36,0,0,0,113,39.09v7.63a14.59,14.59,0,0,1-4.37,1.9,24.63,24.63,0,0,1-5.57.52" transform="translate(-3 -3.07)"/><path class="cls-1" d="M148.47,32.15q0,8-4.21,12.49t-11.73,4.5a16.32,16.32,0,0,1-8.3-2.06,13.69,13.69,0,0,1-5.53-5.92,19.84,19.84,0,0,1-1.93-9q0-8,4.18-12.45t11.75-4.44a16.5,16.5,0,0,1,8.3,2.05,13.59,13.59,0,0,1,5.52,5.87,19.74,19.74,0,0,1,1.93,9m-22.6,0q0,4.86,1.6,7.34A5.69,5.69,0,0,0,132.65,42a5.62,5.62,0,0,0,5.13-2.47q1.56-2.47,1.56-7.35t-1.58-7.28q-1.58-2.43-5.17-2.42t-5.15,2.41c-1.05,1.61-1.58,4-1.58,7.29" transform="translate(-3 -3.07)"/><path class="cls-1" d="M164.38,49.14a10.63,10.63,0,0,1-9-4.47Q152,40.19,152,32.27t3.35-12.52a10.88,10.88,0,0,1,9.22-4.49A10.67,10.67,0,0,1,174,20.05h0.29a36.29,36.29,0,0,1-.68-6.52V3.07h8.95V48.56h-6.84L174,44.31h-0.38q-3,4.83-9.26,4.83m3.12-7.1q3.42,0,5-2t1.74-6.76v-1q0-5.26-1.62-7.54t-5.28-2.28A5.24,5.24,0,0,0,162.73,25c-1.1,1.69-1.64,4.13-1.64,7.35s0.54,5.63,1.66,7.24A5.45,5.45,0,0,0,167.51,42" transform="translate(-3 -3.07)"/><path class="cls-1" d="M204.92,49.14q-7.9,0-12.34-4.35t-4.44-12.33q0-8.22,4.11-12.7t11.35-4.49q6.92,0,10.79,3.95t3.86,10.9v4.33H197.17a8.58,8.58,0,0,0,2.25,5.93,7.91,7.91,0,0,0,5.9,2.14,24.26,24.26,0,0,0,5.58-.62,28,28,0,0,0,5.5-2v6.89a20.88,20.88,0,0,1-5,1.74,31.76,31.76,0,0,1-6.49.57M203.66,21.6a5.67,5.67,0,0,0-4.44,1.8,8.32,8.32,0,0,0-1.84,5.1h12.51a7.4,7.4,0,0,0-1.72-5.1,5.86,5.86,0,0,0-4.51-1.8" transform="translate(-3 -3.07)"/><path class="cls-1" d="M236.93,49.13q-6.81,0-10-4.3t-2-12q1.25-7.9,6-12.3a16.42,16.42,0,0,1,11.66-4.39,20.25,20.25,0,0,1,7.67,1.43l-1.2,2.57a21.41,21.41,0,0,0-6.94-1.37,12.69,12.69,0,0,0-9.43,3.61Q229.1,26,228,32.79q-1,6.44,1.42,10.07t7.84,3.64A22.51,22.51,0,0,0,245.58,45l-0.43,2.69a19.87,19.87,0,0,1-8.22,1.49" transform="translate(-3 -3.07)"/><path class="cls-1" d="M270.28,48.55l0.07-5h-0.23a18.87,18.87,0,0,1-5.62,4.34,14.47,14.47,0,0,1-6.18,1.28q-4.67,0-6.9-2.4c-1.48-1.6-2-3.81-1.55-6.64a10,10,0,0,1,5-7.22q4.28-2.57,11.64-2.72l6.08-.17,0.33-2.11q0.73-4.53-.76-6.84c-1-1.54-2.83-2.31-5.57-2.31a22.16,22.16,0,0,0-9.53,2.46l-0.69-2.52a26.88,26.88,0,0,1,10.73-2.46q5.24,0,7.39,2.72t1.24,8.48l-3.35,21.13h-2.13Zm-11.37-2a12.6,12.6,0,0,0,8.48-2.91,12.86,12.86,0,0,0,4.22-8.09l0.49-3.13-5.59.23q-6.75.32-9.88,2.09a7.29,7.29,0,0,0-3.72,5.51A5.19,5.19,0,0,0,254,44.85c1,1.1,2.68,1.65,4.9,1.65" transform="translate(-3 -3.07)"/><path class="cls-1" d="M345.47,49.13q-7.34,0-9.83-5.5h-0.21l-0.3,2.46q-0.23,2.17-.64,4.74l-1.92,12.1h-2.89L337,16.77h2.46l-0.16,4.52h0.17q4.08-5.14,11.28-5.14,6.43,0,9.14,4.22t1.43,12.29q-1.24,7.83-5.47,12.15a14,14,0,0,1-10.37,4.31m0.35-2.57a10.45,10.45,0,0,0,8.13-3.63q3.25-3.62,4.28-10.14,2.22-14-7.9-14-5.55,0-8.64,3.06t-4.18,10l-0.15.94q-1.19,7.45.81,10.65t7.64,3.18" transform="translate(-3 -3.07)"/><path class="cls-1" d="M320.61,48.55l3.3-20.84q0.73-4.66-.74-6.78T318,18.79a10.5,10.5,0,0,0-7.64,2.69q-2.77,2.69-3.68,8.45l-2.95,18.62h-3l3.45-21.72q1.26-8-6.1-8-5,0-7.74,2.91T286.58,31L283.8,48.55h-2.89l5-31.78h2.4l-0.07,4.36h0.17a11.51,11.51,0,0,1,4.33-3.67,12.36,12.36,0,0,1,5.56-1.3q7.51,0,8.76,5.65h0.11A13.55,13.55,0,0,1,312,17.62a13.3,13.3,0,0,1,6.18-1.47q5.2,0,7.36,2.78t1.21,8.83l-3.29,20.79h-2.86Z" transform="translate(-3 -3.07)"/><path class="cls-1" d="M373.35,16.78l-3.26,20.58q-0.76,4.81.92,7t5.91,2.18q5.67,0,8.8-2.86t4.15-9.33l2.78-17.53h2.86l-5,31.78H388l0.17-4.39H388q-3.89,5-11.81,5-10.85,0-9-11.61l3.29-20.75h2.87Z" transform="translate(-3 -3.07)"/><path class="cls-1" d="M420.34,40.28a9.15,9.15,0,0,1-4.29,6.56q-3.6,2.29-9.57,2.29-6.37,0-9.8-2L397.17,44a20.05,20.05,0,0,0,9.74,2.4,14.76,14.76,0,0,0,7.4-1.56,5.81,5.81,0,0,0,3.1-4.17,4.36,4.36,0,0,0-1.3-4,17.68,17.68,0,0,0-5.87-3.21,30.54,30.54,0,0,1-6.23-3,7.36,7.36,0,0,1-2.47-2.81,6.55,6.55,0,0,1-.38-3.82,7.92,7.92,0,0,1,3.9-5.65,16.24,16.24,0,0,1,8.7-2.07,22.91,22.91,0,0,1,9.46,1.93l-1.5,2.63a20.78,20.78,0,0,0-8.38-1.93A13.83,13.83,0,0,0,407,20.07a4.84,4.84,0,0,0-2.85,3.57,4.27,4.27,0,0,0,1.14,4q1.54,1.49,6.39,3.33a28.23,28.23,0,0,1,5.81,2.79,7.21,7.21,0,0,1,2.49,2.82,6.41,6.41,0,0,1,.39,3.72" transform="translate(-3 -3.07)"/><polygon class="cls-1" points="453.9 39.52 425.32 26.72 425.47 22.54 455 8.04 454.76 15.05 434.44 24.32 454.15 32.53 453.9 39.52"/><polygon class="cls-1" points="481 2.71 463.58 45.45 455.48 45.45 472.9 2.71 481 2.71"/><polygon class="cls-1" points="481.62 32.53 501.9 24.32 482.23 15.05 482.47 8.03 511 22.53 510.85 26.71 481.38 39.52 481.62 32.53"/></svg>