<svg id="Layer_1" data-name="Layer 1" xmlns="http://www.w3.org/2000/svg" viewBox="0 0 289.1339 76.5354"><defs><style>.cls-1{fill:#273691;}</style></defs><title>Artboard 1</title><polygon class="cls-1" points="158.707 25.19 158.705 73.47 179.397 73.47 179.397 3.12 158.707 25.19"/><polygon class="cls-1" points="117.324 25.19 117.324 73.47 138.014 73.47 138.016 3.12 117.324 25.19"/><polygon class="cls-1" points="220.779 43.123 220.779 3.12 200.089 3.12 200.089 65.192 220.779 43.123"/><polygon class="cls-1" points="99.026 56.914 83.529 73.468 49.733 3.12 73.184 3.12 99.026 56.914"/><polygon class="cls-1" points="26.285 3.118 52.127 56.924 36.631 73.469 2.835 3.118 26.285 3.118"/><polygon class="cls-1" points="286.299 3.12 261.736 3.12 228.754 38.294 261.736 73.47 286.299 73.47 253.317 38.294 286.299 3.12"/></svg>